Format : AVI
Format/Info : Audio Video Interleave
File size : 1.08 GiB
Duration : 1h 31mn
Overall bit rate : 1 695 Kbps
Writing application : AVI-Mux GUI 1.17.8.3, Feb 16 201019:42:50
Writing library : VirtualDub build 32839/release

Video
ID : 0
Format : MPEG-4 Visual
Format profile : Advanced Simple@L5
Format settings, BVOP : Yes
Format settings, QPel : No
Format settings, GMC : No warppoints
Format settings, Matrix : Custom
Codec ID : XVID
Codec ID/Hint : XviD
Duration : 1h 31mn
Bit rate : 1 237 Kbps
Width : 720 pixels
Height : 304 pixels
Display aspect ratio : 2.35:1
Frame rate : 24.000 fps
Color space : YUV
Chroma subsampling : 4:2:0
Bit depth : 8 bits
Scan type : Progressive
Bits/(Pixel*Frame) : 0.236
Stream size : 809 MiB (73%)
Writing library : XviD 1.2.1 (UTC 2008-12-04)

Audio
ID : 1
Format : AC-3
Format/Info : Audio Coding 3
Mode extension : CM (complete main)
Codec ID : 2000
Duration : 1h 31mn
Bit rate mode : Constant
Bit rate : 448 Kbps
Channel(s) : 3 channels
Channel positions : Front: L R, Side: C
Sampling rate : 48.0 KHz
Bit depth : 16 bits
Stream size : 293 MiB (26%)
Alignment : Split accross interleaves
Interleave, duration : 42 ms (1.00 video frame)
Interleave, preload duration : 500 ms



 
http://www.imdb.com/title/tt1320239/




Storyline

Based on the true story about the famous murderers, 'Burke And Hare' follows the hapless exploits of these two men as they fall into the highly profitable business of providing cadavers for the medical fraternity in Nineteenth Century Edinburgh, then the centre of medical learning. The one thing they were short of was bodies.